<?xml version="1.0" standalone="no"?><!DOCTYPE svg PUBLIC "-//W3C//DTD SVG 1.1//EN" "http://www.w3.org/Graphics/SVG/1.1/DTD/svg11.dtd"><svg class="icon" width="64px" height="64.00px" viewBox="0 0 1024 1024" version="1.1" xmlns="http://www.w3.org/2000/svg"><path fill="#58a" d="M682.666667 768h42.666666v-46.933333l-38.4-38.4h-98.133333l51.2-85.333334h81.066667l85.333333 85.333334v170.666666h-213.333333l89.6-85.333333z m-298.666667 0l85.333333 85.333333H256v-170.666666h4.266667l85.333333-85.333334H426.666667l51.2 85.333334H379.733333l-38.4 38.4V768h42.666667z m341.333333-405.333333c0 106.666667-85.333333 192-192 192S341.333333 469.333333 341.333333 362.666667 426.666667 170.666667 533.333333 170.666667 725.333333 256 725.333333 362.666667z m-85.333333 0C640 302.933333 593.066667 256 533.333333 256S426.666667 302.933333 426.666667 362.666667s46.933333 106.666667 106.666666 106.666666S640 422.4 640 362.666667zM469.333333 597.333333h128l-42.666666 85.333334 42.666666 128-64 64L469.333333 810.666667l42.666667-128-42.666667-85.333334z"  /></svg>