<?xml version="1.0" standalone="no"?><!DOCTYPE svg PUBLIC "-//W3C//DTD SVG 1.1//EN" "http://www.w3.org/Graphics/SVG/1.1/DTD/svg11.dtd"><svg t="1588393769207" class="icon" viewBox="0 0 1024 1024" version="1.1" xmlns="http://www.w3.org/2000/svg" p-id="9789" xmlns:xlink="http://www.w3.org/1999/xlink" width="64" height="64"><defs><style type="text/css"></style></defs><path d="M306.412474 220.868412m-15.967261 0a15.967262 15.967262 0 1 0 31.934523 0 15.967262 15.967262 0 1 0-31.934523 0Z" fill="#5FB0E5" p-id="9790"></path><path d="M44.144782 41.977281m-23.192267 0a23.192267 23.192267 0 1 0 46.384534 0 23.192267 23.192267 0 1 0-46.384534 0Z" fill="#5FB0E5" p-id="9791"></path><path d="M216.750159 108.80858a24.854018 24.854018 0 1 1-24.781768-24.781768A24.781768 24.781768 0 0 1 216.750159 108.80858z" fill="#5FB0E5" p-id="9792"></path><path d="M511.530375 61.629295a44.867283 44.867283 0 1 1-44.867283-44.795033 44.795033 44.795033 0 0 1 44.867283 44.795033z" fill="#5FB0E5" p-id="9793"></path><path d="M31.645523 301.643971m44.578283 0l870.468637 0q44.578283 0 44.578283 44.578283l0 601.48169q0 44.578283-44.578283 44.578283l-870.468637 0q-44.578283 0-44.578283-44.578283l0-601.48169q0-44.578283 44.578283-44.578283Z" fill="#FFFFFF" p-id="9794"></path><path d="M946.475693 1009.76674H76.296056A62.207296 62.207296 0 0 1 14.450011 947.703944V346.222254a62.135046 62.135046 0 0 1 62.135045-62.062796h50.575037v34.969026h-50.575037a27.16602 27.16602 0 0 0-27.45502 27.09377v601.48169a27.23827 27.23827 0 0 0 27.16602 27.09377H946.475693a27.23827 27.23827 0 0 0 27.16602-27.09377V346.222254a27.16602 27.16602 0 0 0-27.16602-27.09377H362.261765v-34.969026H946.475693a62.135046 62.135046 0 0 1 62.135046 62.062796v601.48169a62.207296 62.207296 0 0 1-62.135046 62.062796z" fill="#0686D8" p-id="9795"></path><path d="M221.446412 284.159458h77.741057v34.969026H221.446412z" fill="#0686D8" p-id="9796"></path><path d="M88.723065 558.276159h34.969026v177.37388h-34.969026z" fill="#0686D8" p-id="9797"></path><path d="M155.915614 360.672264h701.837014v572.509419H155.915614z" fill="#D2E9F7" p-id="9798"></path><path d="M903.125661 689.337755a42.410781 42.410781 0 1 1 42.410782-42.410781 42.410781 42.410781 0 0 1-42.410782 42.410781z m0-49.852537a7.225005 7.225005 0 1 0 7.225006 7.225006 7.225005 7.225005 0 0 0-7.225006-7.225006z" fill="#0686D8" p-id="9799"></path><path d="M604.949693 602.131941L434.150568 700.825513a16.184012 16.184012 0 0 1-24.203768-14.01651v-197.242644a16.184012 16.184012 0 0 1 24.203768-14.016511l170.799125 98.621323a16.111762 16.111762 0 0 1 0 27.96077z" fill="#5FB0E5" p-id="9800"></path><path d="M426.275312 720.405278a33.668525 33.668525 0 0 1-16.834262-4.551754 33.235024 33.235024 0 0 1-16.834262-28.900021V489.566359a33.668525 33.668525 0 0 1 50.575037-28.900022l170.510124 98.332322a33.596275 33.596275 0 0 1 0 58.233543L442.892824 715.853524a33.235024 33.235024 0 0 1-16.617512 4.551754z m1.300501-228.526918v192.546391l167.331123-96.670571z" fill="#0686D8" p-id="9801"></path><path d="M242.326677 805.44359h536.167643v34.969026H242.326677z" fill="#0686D8" p-id="9802"></path><path d="M344.777253 780.300572h34.969025v85.255062h-34.969025z" fill="#0686D8" p-id="9803"></path></svg>